<?xml version="1.0" encoding="UTF-8"?>
<svg version="1.1" xmlns="http://www.w3.org/2000/svg" width="1417" height="285">
<path d="M0 0 C1.90471069 0.01135986 1.90471069 0.01135986 3.84790039 0.02294922 C29.64977839 0.47385263 52.04960017 10.94398684 70.41796875 29.0703125 C76.0576474 35.05980481 80.69037864 41.28816682 84.75 48.4375 C85.27335938 49.34886719 85.79671875 50.26023438 86.3359375 51.19921875 C92.87860642 63.37123987 96.83348318 77.21670551 96.98828125 91.046875 C96.99812042 91.76689194 97.00795959 92.48690887 97.01809692 93.22874451 C97.34899858 123.70306523 97.34899858 123.70306523 92.75 136.4375 C92.50330566 137.12247559 92.25661133 137.80745117 92.00244141 138.51318359 C82.83012972 163.00083463 64.98451433 181.73058374 41.75 193.4375 C28.25763468 199.54156657 15.21016706 201.98889523 0.4375 201.875 C-0.24220856 201.87229095 -0.92191711 201.86958191 -1.6222229 201.86679077 C-12.03539066 201.80388474 -21.43425489 201.07824909 -31.25 197.4375 C-32.30316406 197.06367188 -33.35632813 196.68984375 -34.44140625 196.3046875 C-58.31833163 187.09545191 -76.86352835 169.58459525 -88.14135742 146.80175781 C-94.35099081 132.66555591 -96.93860569 118.6848477 -96.77148438 103.28076172 C-96.74999931 100.93742527 -96.77145276 98.59715231 -96.796875 96.25390625 C-96.84803298 69.43398503 -86.55194675 45.80129678 -67.66015625 26.81298828 C-49.37456183 8.97693583 -25.46395331 -0.21411132 0 0 Z " fill="#E93867" transform="translate(157.25,46.5625)"/>
<path d="M0 0 C0.93457031 0.43570313 1.86914062 0.87140625 2.83203125 1.3203125 C9.50535341 4.6615381 17.20188184 9.16391585 21.04516602 15.80639648 C22.23024046 17.82150591 23.28322198 19.40705426 25 21 C28.10881602 21.76666565 31.01997272 21.46999999 34.1875 21.1875 C44.02699688 20.76123684 50.53199676 21.93880362 58.3125 28.3125 C66.05209043 35.70880215 69.67715717 43.33478891 70.13671875 54.24609375 C70 57 70 57 69 59 C70.299375 59.20625 71.59875 59.4125 72.9375 59.625 C83.25577177 61.97006177 90.75440521 69.47015562 96.38671875 78.1328125 C100.76857073 86.95801614 100.21705965 98.60842183 98.41015625 108.09765625 C95.48194933 116.61239619 88.22308043 124.67923254 80.31195068 128.95000267 C71.12808477 133.12095439 61.52805625 133.43507547 51.609375 133.38818359 C50.20836989 133.3922598 48.807368 133.3976075 47.40637207 133.40411377 C43.6377203 133.41766877 39.86931778 133.41253823 36.10066223 133.40297651 C32.13448473 133.39531802 28.16832689 133.40244255 24.20214844 133.40713501 C17.54488338 133.4125747 10.88771855 133.40544812 4.23046875 133.39111328 C-3.43812723 133.37479019 -11.10648382 133.38007997 -18.77507401 133.3965925 C-25.38948218 133.41025856 -32.00381879 133.41210213 -38.61823654 133.40427649 C-42.55546739 133.39962797 -46.49258617 133.39889655 -50.42980957 133.40888596 C-54.13345909 133.41762839 -57.83680355 133.41140289 -61.54042053 133.39420319 C-63.52755325 133.38842165 -65.51471213 133.39719133 -67.50183105 133.40658569 C-80.44367377 133.31616459 -92.20803618 131.08904194 -102.03515625 122.1484375 C-110.29885004 113.34084879 -112.51329811 103.68886072 -112.2734375 91.89453125 C-111.60948254 82.43791559 -107.66579174 74.69182999 -101 68 C-90.83690987 60 -90.83690987 60 -85 60 C-85.05220703 59.16082031 -85.05220703 59.16082031 -85.10546875 58.3046875 C-85.68036514 41.27680386 -79.95863442 26.7733279 -69 14 C-66.16239035 11.09024773 -63.21287296 8.48663585 -60 6 C-59.40058594 5.53078125 -58.80117187 5.0615625 -58.18359375 4.578125 C-42.54774528 -6.36359186 -17.04617225 -8.61674641 0 0 Z " fill="#6C6D6F" transform="translate(1258,49)"/>
<path d="M0 0 C10.76000895 4.62412169 21.49032406 9.31258316 32.1796875 14.09765625 C33.37813797 14.63398682 33.37813797 14.63398682 34.60079956 15.18115234 C38.72168275 17.0268774 42.83983743 18.87843967 46.95458984 20.73779297 C54.08798468 23.95489603 61.21595912 27.13357114 68.484375 30.03515625 C69.56203125 30.47214844 70.6396875 30.90914062 71.75 31.359375 C73.68238026 32.13434 75.62473852 32.88509003 77.578125 33.60546875 C78.4134375 33.94320312 79.24875 34.2809375 80.109375 34.62890625 C80.82061523 34.89775635 81.53185547 35.16660645 82.26464844 35.44360352 C85.91232698 38.71512163 85.94024274 44.21110373 86.29052734 48.83544922 C86.3055127 50.14529785 86.32049805 51.45514648 86.3359375 52.8046875 C86.34857384 53.88046806 86.34857384 53.88046806 86.36146545 54.97798157 C86.38097255 57.27722364 86.38120471 59.57569004 86.375 61.875 C86.37412384 62.66000885 86.37324768 63.4450177 86.37234497 64.2538147 C86.32943336 75.87276319 85.98697389 86.96023602 82 98 C81.75330566 98.68497559 81.50661133 99.36995117 81.25244141 100.07568359 C72.08012972 124.56333463 54.23451433 143.29308374 31 155 C17.50763468 161.10406657 4.46016706 163.55139523 -10.3125 163.4375 C-10.99220856 163.43479095 -11.67191711 163.43208191 -12.3722229 163.42929077 C-22.78539066 163.36638474 -32.18425489 162.64074909 -42 159 C-43.05316406 158.62617188 -44.10632813 158.25234375 -45.19140625 157.8671875 C-69.69356046 148.41680363 -89.13236516 130.00471239 -99.875 106.125 C-104.9318974 94.24507361 -107.89903563 81.96109697 -107 69 C-106.67 69 -106.34 69 -106 69 C-105.84144531 69.92039062 -105.68289062 70.84078125 -105.51953125 71.7890625 C-101.87918357 91.53945707 -94.61098986 109.0616973 -81 124 C-80.37609375 124.70511719 -79.7521875 125.41023438 -79.109375 126.13671875 C-64.34563135 141.92399925 -41.21094633 153.04939428 -19.52319336 154.12255859 C-6.47492675 154.50540984 5.51520037 154.16159988 18 150 C11.31486264 144.92949327 4.46231836 140.32702591 -2.671875 135.92431641 C-7.65763769 132.84672834 -12.59022015 129.69730183 -17.5 126.5 C-25.60274722 121.22969137 -33.78674754 116.09597494 -42 111 C-41.40702213 104.32545523 -39.20206679 98.41482599 -36.921875 92.14453125 C-36.51342346 91.00650558 -36.10497192 89.86847992 -35.68414307 88.69596863 C-34.81977012 86.29186062 -33.95216415 83.88891288 -33.08154297 81.48706055 C-31.7617497 77.84492478 -30.45228336 74.19920865 -29.14453125 70.55273438 C-28.30008969 68.20811336 -27.45505631 65.86370539 -26.609375 63.51953125 C-26.22271667 62.44411575 -25.83605835 61.36870026 -25.43768311 60.26069641 C-23.51615642 54.96920511 -21.53753618 49.70059822 -19.46191406 44.4675293 C-19.08585022 43.51315475 -18.70978638 42.55878021 -18.32232666 41.57548523 C-16.88611239 38.77818199 -15.38985123 37.02974591 -13 35 C-10.5625 34.375 -10.5625 34.375 -8 35 C-3.19316763 39.78494334 -1.23011675 44.86112063 0.9609375 51.19921875 C1.31459381 52.18888138 1.66825012 53.17854401 2.03262329 54.19819641 C3.15865361 57.35721899 4.26724237 60.52202942 5.375 63.6875 C6.110794 65.76409219 6.84776326 67.84026835 7.5859375 69.91601562 C8.67625619 72.98301781 9.76506924 76.05048252 10.84735107 79.12033081 C13.46694466 86.54627707 16.16707311 93.93950684 18.95004272 101.30583191 C21 106.78617382 21 106.78617382 21 109 C26.90849918 107.41667669 31.04445651 105.94442936 35 101 C37.48716379 93.53850864 35.79001556 87.19228301 32.6953125 80.2265625 C32.34418396 79.40062592 31.99305542 78.57468933 31.63128662 77.72372437 C30.47710166 75.01763832 29.30096604 72.32168247 28.125 69.625 C27.31612086 67.73642575 26.50901923 65.84708929 25.70361328 63.95703125 C24.01596132 60.00111027 22.32058168 56.04864217 20.61914062 52.09863281 C16.72234224 43.04066869 12.89457139 33.95374629 9.07855225 24.86151123 C7.88753206 22.02979565 6.68861669 19.2015199 5.48876953 16.37353516 C4.76045285 14.64497865 4.0324105 12.91630653 3.3046875 11.1875 C2.96806091 10.39886566 2.63143433 9.61023132 2.28460693 8.79769897 C0 3.34139406 0 3.34139406 0 0 Z " fill="#DB1A39" transform="translate(168,85)"/>
<path d="M0 0 C1.29894613 3.69541253 0.72428583 6.46597401 -0.0480957 10.25878906 C-0.30198563 11.5282135 -0.55587555 12.79763794 -0.81745911 14.10552979 C-0.95712412 14.78245125 -1.09678913 15.45937271 -1.24068642 16.15680695 C-1.68162169 18.29393247 -2.11209911 20.43293897 -2.54008484 22.57269287 C-3.29988596 26.36232013 -4.06898476 30.14999106 -4.84106445 33.93713379 C-6.06752459 39.95415613 -7.28554781 45.97282866 -8.4929409 51.99370575 C-8.91206492 54.07259104 -9.33854504 56.14986458 -9.76570129 58.22711182 C-12.57382605 72.06143963 -14.12349983 85.92283872 -15.125 100 C-15.41375 103.96 -15.7025 107.92 -16 112 C-24.25 112 -32.5 112 -41 112 C-41 105.07 -41 98.14 -41 91 C-42.11375 92.65 -43.2275 94.3 -44.375 96 C-51.9036806 106.29891694 -61.30070473 112.92862105 -74 115 C-85.10858156 115.81703853 -94.2768238 114.38137257 -102.9609375 107.078125 C-106.49677827 103.47454782 -108.84325874 99.54159939 -111 95 C-111.3403125 94.28714844 -111.680625 93.57429688 -112.03125 92.83984375 C-118.39284842 76.1406479 -113.46797741 55.26683804 -106.66015625 39.5390625 C-97.91843598 20.90377177 -83.08255275 7.57464046 -64 0 C-43.52512346 -7.28329816 -20.70599876 -5.28864735 0 0 Z M-66 28 C-66.87591797 28.71736328 -66.87591797 28.71736328 -67.76953125 29.44921875 C-78.43572037 39.00785776 -84.0044573 53.58685224 -85.33984375 67.5546875 C-85.56853255 75.47646743 -84.49731778 81.1707794 -80.125 87.875 C-76.68163034 91.31836966 -74.0466269 91.87789353 -69.25 92.4375 C-62.57222741 92.23628651 -57.16954256 88.31372677 -52.375 83.9375 C-40.41386121 71.0626631 -37.03125724 54.00129121 -33.625 37.375 C-33.48544891 36.70430481 -33.34589783 36.03360962 -33.20211792 35.34259033 C-32.8029313 33.40520699 -32.42072472 31.46434917 -32.0390625 29.5234375 C-31.81428223 28.38825684 -31.58950195 27.25307617 -31.35791016 26.08349609 C-31.00764817 23.06589113 -31.21338294 20.91327062 -32 18 C-45.70915378 17.38768048 -55.26258676 18.74826658 -66 28 Z " fill="#6C6D6F" transform="translate(414,91)"/>
<path d="M0 0 C-0.15620316 0.77942459 -0.31240631 1.55884918 -0.4733429 2.3618927 C-1.97021383 9.84176361 -3.4556836 17.32377868 -4.92953205 24.80821705 C-5.68695272 28.65256386 -6.44820463 32.49605373 -7.21948242 36.33764648 C-12.19315397 61.13326633 -15.83912486 85.69292197 -17 111 C-25.58 111 -34.16 111 -43 111 C-42.67 104.07 -42.34 97.14 -42 90 C-43.010625 91.340625 -44.02125 92.68125 -45.0625 94.0625 C-46.36615496 95.71534825 -47.6785729 97.36132552 -49 99 C-49.5053125 99.63035156 -50.010625 100.26070313 -50.53125 100.91015625 C-57.30281093 108.49361351 -67.88857897 113.42467283 -77.9453125 114.23828125 C-88.04765921 114.47408541 -95.92371939 112.856737 -103.875 106.375 C-111.1537923 99.3826718 -114.91008265 89.87295124 -115.3359375 79.84765625 C-115.70769248 56.44527603 -110.07021995 37.2753383 -95 19 C-94.22462891 18.05447266 -94.22462891 18.05447266 -93.43359375 17.08984375 C-71.53163787 -7.00779693 -29.16697639 -12.03677072 0 0 Z M-71 30 C-81.83714086 42.83721583 -86.90855116 57.41391217 -86.3515625 74.0859375 C-85.77915277 80.45876578 -84.13114447 84.02108013 -79.375 88.4375 C-75.23297927 91.16251364 -71.90180527 91.69442241 -67 91 C-55.93639018 87.41132909 -49.87180481 79.3460339 -44.75 69.375 C-37.77043086 54.98535245 -35.60064933 39.32188865 -32.85546875 23.6953125 C-32.66621826 22.62297363 -32.47696777 21.55063477 -32.28198242 20.44580078 C-32.18892822 19.63868652 -32.09587402 18.83157227 -32 18 C-34.05070553 15.94929447 -38.1309639 16.71090261 -40.9375 16.6875 C-53.74839938 16.69946783 -61.78913909 20.98722212 -71 30 Z " fill="#6C6D6F" transform="translate(943,92)"/>
<path d="M0 0 C9.24 0 18.48 0 28 0 C26.87582393 11.24176074 26.87582393 11.24176074 25.87670898 16.42089844 C25.65655624 17.57620056 25.4364035 18.73150269 25.20957947 19.92181396 C24.97412918 21.13870911 24.73867889 22.35560425 24.49609375 23.609375 C24.12503248 25.57275839 23.7539871 27.53614493 23.38382816 29.49969864 C22.48033013 34.28776775 21.56896093 39.07427867 20.64477539 43.85839844 C20.12403935 46.55618524 19.61029942 49.25513627 19.10377502 51.95562744 C18.6300127 54.47984717 18.14656494 57.0022767 17.651474 59.5223999 C14.6270411 75.20018177 14.6270411 75.20018177 19 90 C22.09624277 92.40262718 25.56166647 93.0138746 29.4296875 92.9765625 C37.42793055 91.85531347 43.02731573 87.80407887 47.94140625 81.515625 C55.0398373 70.90630688 58.65240607 59.73014771 60.859375 47.24609375 C61.21791903 45.3163081 61.5764642 43.38652266 61.93507767 41.45674992 C62.42634129 38.79406464 62.90512715 36.12919254 63.38421631 33.46429443 C64.1156373 29.41151671 64.86454876 25.36194073 65.61209488 21.31211185 C66.19243866 18.16733516 66.76889351 15.02197096 67.33782959 11.87510681 C67.54184387 10.75286209 67.74585815 9.63061737 67.95605469 8.47436523 C68.13416687 7.48685776 68.31227905 6.49935028 68.49578857 5.48191833 C69 3 69 3 70 0 C79.24 0 88.48 0 98 0 C97.36522804 6.34771963 96.67138086 12.41424772 95.46533203 18.63647461 C95.23825562 19.83646591 95.23825562 19.83646591 95.0065918 21.06069946 C94.5109049 23.67534044 94.0092859 26.28880706 93.5078125 28.90234375 C93.15724488 30.74816814 92.8071458 32.59408158 92.45748901 34.44007874 C91.53832142 39.28805231 90.61452598 44.13513037 89.68920898 48.98193359 C88.21505791 56.70416333 86.74518223 64.42719582 85.28060532 72.15124702 C84.77420403 74.81608648 84.26411548 77.48020025 83.75369263 80.14427185 C81.60916571 91.40010253 79.73816929 102.67372399 78 114 C69.75 114 61.5 114 53 114 C53.33 108.39 53.66 102.78 54 97 C53.05125 98.175625 52.1025 99.35125 51.125 100.5625 C42.82346541 109.99985824 31.66261238 116.21827672 19.0546875 117.23828125 C10.01306493 117.44932649 2.74516886 116.02883119 -4.9375 111.125 C-13.11246246 102.7023114 -14.32198222 93.45409876 -14.34489441 82.1534729 C-14.17083785 71.19982793 -11.9253729 60.5882295 -9.8125 49.875 C-9.3970833 47.70217827 -8.98311036 45.52908003 -8.57055664 43.35571289 C-7.40290518 37.23264572 -6.20477938 31.11585131 -5 25 C-4.69405994 23.43641466 -4.38837075 21.87278019 -4.08300781 20.30908203 C-2.75693259 13.53165279 -1.38888105 6.76519482 0 0 Z " fill="#6C6D6F" transform="translate(641,89)"/>
<path d="M0 0 C6.29357624 5.28113137 9.60353078 10.23637358 12.1953125 18.01171875 C12.9647614 29.12457908 12.38827402 37.78217592 6.0078125 47.26171875 C-9.26179912 62.19200566 -32.72752387 64.29270727 -53.1171875 64.19921875 C-56.01472738 64.16201934 -58.90796685 64.09572676 -61.8046875 64.01171875 C-60.48103329 72.98735491 -59.17708091 80.18737469 -51.8046875 86.01171875 C-41.98274524 91.75662837 -30.50852431 90.23589263 -19.8046875 88.01171875 C-15.96745724 86.88471312 -12.25885356 85.49097463 -8.53515625 84.03515625 C-5.8046875 83.01171875 -5.8046875 83.01171875 -3.8046875 83.01171875 C-3.46749703 85.57376419 -3.13481597 88.13626193 -2.8046875 90.69921875 C-2.70929688 91.42044922 -2.61390625 92.14167969 -2.515625 92.88476562 C-2.03785015 96.62164746 -1.68548956 100.23463406 -1.8046875 104.01171875 C-6.99789279 107.0410885 -12.06919111 108.76441503 -17.8671875 110.19921875 C-18.53943359 110.36583008 -19.21167969 110.53244141 -19.90429688 110.70410156 C-36.77757859 114.72037145 -54.91712496 114.94039846 -70.4921875 106.50390625 C-80.20638805 100.23562144 -85.82291917 90.42872303 -88.42529297 79.27001953 C-91.97309149 58.15217119 -86.63223084 37.95643608 -75.01171875 20.28515625 C-73.36412574 18.09087906 -71.64837956 16.04304319 -69.8046875 14.01171875 C-69.20140625 13.32851562 -68.598125 12.6453125 -67.9765625 11.94140625 C-52.12020069 -5.0107204 -20.48098842 -14.51925224 0 0 Z M-50.8046875 26.01171875 C-54.66096719 31.34195423 -57.40632975 36.57927309 -58.8046875 43.01171875 C-44.76089043 43.5576979 -29.88350942 42.87512457 -17.8046875 35.07421875 C-14.48033567 31.64598093 -13.8046875 29.27171471 -13.8046875 24.51171875 C-15.14962323 19.80444371 -16.79959034 18.73518482 -20.8046875 16.01171875 C-32.11533913 12.24150154 -43.22274958 17.45356565 -50.8046875 26.01171875 Z " fill="#6C6D6F" transform="translate(1118.8046875,92.98828125)"/>
<path d="M0 0 C-1.65 8.91 -3.3 17.82 -5 27 C2.92 27.33 10.84 27.66 19 28 C17.86649874 40.46851385 17.86649874 40.46851385 17 44.625 C16.835 45.44226563 16.67 46.25953125 16.5 47.1015625 C16 49 16 49 15 50 C13.14630389 50.08737645 11.28932459 50.10698153 9.43359375 50.09765625 C8.30888672 50.09443359 7.18417969 50.09121094 6.02539062 50.08789062 C4.84138672 50.07951172 3.65738281 50.07113281 2.4375 50.0625 C1.24962891 50.05798828 0.06175781 50.05347656 -1.16210938 50.04882812 C-4.10812226 50.03699675 -7.05403681 50.02051287 -10 50 C-10.09651855 50.6919043 -10.19303711 51.38380859 -10.29248047 52.09667969 C-11.32441606 59.15328156 -12.57275001 66.14331645 -13.9453125 73.140625 C-14.12100769 74.03978638 -14.29670288 74.93894775 -14.47772217 75.86535645 C-15.21049972 79.60824255 -15.94552554 83.35061808 -16.69189453 87.09082031 C-17.24234399 89.85597996 -17.78208672 92.62306373 -18.3203125 95.390625 C-18.48902863 96.22209045 -18.65774475 97.05355591 -18.83157349 97.91021729 C-20.72006055 107.61215328 -20.72006055 107.61215328 -18.625 117 C-17.14913969 119.09716677 -17.14913969 119.09716677 -15 120 C-12.7927077 120.07092842 -10.58332548 120.08415025 -8.375 120.0625 C-6.59222656 120.04896484 -6.59222656 120.04896484 -4.7734375 120.03515625 C-3.40058594 120.01775391 -3.40058594 120.01775391 -2 120 C-2.11503269 122.5216376 -2.24174777 125.0418119 -2.375 127.5625 C-2.4059375 128.26697266 -2.436875 128.97144531 -2.46875 129.69726562 C-2.72952558 134.41295741 -3.54658123 138.50385496 -5 143 C-17.18224351 145.63909337 -29.70842043 147.04107061 -40.8125 140.375 C-45.9828075 136.63036193 -48.15379861 132.81422121 -49.5234375 126.640625 C-51.84446604 109.61974908 -46.20599241 91.00785438 -42.875 74.4375 C-42.40173996 72.05806272 -41.92907939 69.67850613 -41.45703125 67.29882812 C-40.31158428 61.53115518 -39.15807082 55.76515091 -38 50 C-42.95 50 -47.9 50 -53 50 C-51.68 42.74 -50.36 35.48 -49 28 C-43.72 28 -38.44 28 -33 28 C-32.814375 25.834375 -32.814375 25.834375 -32.625 23.625 C-32.42486914 21.74910677 -32.21614628 19.87411541 -32 18 C-31.90074219 17.08089844 -31.80148437 16.16179687 -31.69921875 15.21484375 C-31.57160156 14.33957031 -31.44398438 13.46429688 -31.3125 12.5625 C-31.20550781 11.75941406 -31.09851563 10.95632812 -30.98828125 10.12890625 C-29.43374829 6.78020876 -27.41371043 6.33676039 -24 5 C-20.27762451 3.80608493 -16.52526079 2.76263506 -12.75 1.75 C-11.74453125 1.46898437 -10.7390625 1.18796875 -9.703125 0.8984375 C-8.7440625 0.63804688 -7.785 0.37765625 -6.796875 0.109375 C-5.92385742 -0.12813477 -5.05083984 -0.36564453 -4.15136719 -0.61035156 C-2 -1 -2 -1 0 0 Z " fill="#6C6D6F" transform="translate(1010,61)"/>
<path d="M0 0 C-1.04973832 5.24869162 -2.31846704 10.37692302 -3.875 15.5 C-4.18179688 16.5209375 -4.48859375 17.541875 -4.8046875 18.59375 C-6 21 -6 21 -7.6953125 21.96875 C-11.00163135 22.01358144 -13.83526277 20.92805586 -17 20 C-29.10895919 18.86313265 -39.61898911 20.47388288 -49.1640625 28.32421875 C-58.87962086 37.19224968 -65.13525742 48.69768333 -66 62 C-66.07928964 71.54873858 -65.04122865 78.86692524 -58.25 85.8125 C-51.43456584 90.39981145 -45.20057909 92.0157171 -37 91 C-32.77011681 90.1245248 -28.60627435 89.01516309 -24.44140625 87.875 C-21 87 -21 87 -18 87 C-17.16788724 92.03854106 -16.8921466 96.8125662 -16.9375 101.9375 C-16.94201172 102.62134766 -16.94652344 103.30519531 -16.95117188 104.00976562 C-16.9628044 105.67321604 -16.98073306 107.3366205 -17 109 C-34.67367561 115.66809006 -53.94727318 117.9034279 -71.8984375 110.86328125 C-83.48037771 105.35055595 -89.62519124 97.19413369 -94.23828125 85.45703125 C-99.41996517 68.74277901 -95.64166831 49.26257121 -88 34 C-77.45553651 14.83543761 -61.9259646 3.24847903 -41.23828125 -2.80859375 C-28.6579364 -5.60208533 -11.74792062 -5.87396031 0 0 Z " fill="#6C6D6F" transform="translate(522,91)"/>
<path d="M0 0 C-1.9172718 7.50931455 -4.24049015 14.75803759 -7 22 C-7.82177734 21.7834375 -7.82177734 21.7834375 -8.66015625 21.5625 C-20.24618523 18.8496737 -32.25116991 18.33368382 -43 24 C-45.25265973 25.51408277 -47.36361954 27.08295695 -49.44140625 28.828125 C-51 30 -51 30 -53 30 C-53.27070312 30.57621094 -53.54140625 31.15242188 -53.8203125 31.74609375 C-55.0102711 34.01962393 -56.37477718 35.98317563 -57.875 38.0625 C-64.50306318 47.88305326 -67.12063968 59.24884783 -66 71 C-64.43870082 77.47430039 -62.43478247 82.85921336 -57 87 C-46.75532217 92.85410162 -37.3858996 91.40536378 -26.44628906 88.4230957 C-25.78467773 88.24222412 -25.12306641 88.06135254 -24.44140625 87.875 C-21 87 -21 87 -18 87 C-17.25194283 94.02639415 -16.86205046 100.93391809 -17 108 C-25.7701461 112.27104042 -34.2873397 114.32638001 -44 115 C-44.88171875 115.06574219 -45.7634375 115.13148438 -46.671875 115.19921875 C-59.69411562 115.7095498 -72.94188077 112.55349001 -83 104 C-93.89269971 93.03357644 -96.30312798 81.24304413 -96.31469727 66.36108398 C-96.00736562 45.10791831 -87.04617907 27.69593687 -72 12.875 C-54.07407093 -2.85036674 -22.34616956 -11.17308478 0 0 Z " fill="#6C6D6F" transform="translate(620,91)"/>
<path d="M0 0 C3.72709479 0.87229878 5.17996255 2.00482782 7.9375 4.6875 C9.68111914 7.56429695 10.9849901 10.60064988 12.3125 13.6875 C12.94152222 15.1103833 12.94152222 15.1103833 13.58325195 16.56201172 C18.5441144 27.88465933 23.2719409 39.31188457 27.9841156 50.73985291 C28.3038887 51.51534988 28.6236618 52.29084686 28.953125 53.08984375 C29.27511368 53.87077896 29.59710236 54.65171417 29.92884827 55.45631409 C31.96726886 60.38516751 34.04619757 65.29480322 36.15763855 70.19281006 C37.56694511 73.46314424 38.96468581 76.73836902 40.36196899 80.01385498 C41.03041452 81.57184958 41.70443839 83.12746418 42.3843689 84.68048096 C49.96949036 102.01931636 49.96949036 102.01931636 46.75 111 C44.68928203 114.05554733 43.1071567 115.78570598 39.9375 117.6875 C37.27951033 118.19102126 34.63258399 118.40945763 31.9375 118.6875 C30.76713302 115.60553363 29.60089783 112.52210056 28.4375 109.4375 C27.86092651 107.91129028 27.86092651 107.91129028 27.27270508 106.35424805 C24.4179112 98.75141265 21.65081756 91.1201659 18.91796875 83.47265625 C17.8452889 80.48223765 16.77202854 77.49202782 15.69873047 74.50183105 C14.98411544 72.50397996 14.2730011 70.50487316 13.56542969 68.5045166 C12.55620225 65.6521722 11.53505653 62.80433832 10.51171875 59.95703125 C10.2108989 59.09642593 9.91007904 58.23582062 9.60014343 57.34913635 C7.9642895 52.83456638 6.37663512 49.17441898 2.9375 45.6875 C0.4375 44.85416667 0.4375 44.85416667 -2.0625 45.6875 C-6.23402488 49.90141842 -7.85675578 54.78621348 -9.8125 60.25 C-10.35765259 61.73693359 -10.35765259 61.73693359 -10.91381836 63.25390625 C-12.02806832 66.30057574 -13.13252039 69.35065752 -14.23480225 72.40167236 C-15.88424112 76.95687739 -17.54710477 81.50720255 -19.20703125 86.05859375 C-23.17004019 96.93084446 -27.11921874 107.80808068 -31.0625 118.6875 C-36.44746399 118.8824987 -38.83749877 118.17771841 -43.0625 114.6875 C-46.45067449 110.85351308 -47.82449016 107.63350419 -47.57299805 102.45458984 C-46.93399183 98.9909378 -45.78435278 95.81160546 -44.51953125 92.5390625 C-44.25442245 91.84359314 -43.98931366 91.14812378 -43.71617126 90.43157959 C-40.40480767 81.84223311 -36.76172708 73.39272279 -33.125 64.9375 C-31.6174497 61.42417681 -30.11242939 57.90978015 -28.609375 54.39453125 C-28.04154045 53.06700584 -28.04154045 53.06700584 -27.4622345 51.71266174 C-24.85878895 45.60646801 -22.32531658 39.47454427 -19.828125 33.32421875 C-19.15498507 31.67475631 -18.48172882 30.02534133 -17.80834961 28.37597656 C-16.84932445 26.02593615 -15.89477658 23.67462416 -14.95510864 21.31677246 C-7.0924815 1.59218972 -7.0924815 1.59218972 0 0 Z " fill="#FEFCFD" transform="translate(157.0625,75.3125)"/>
<path d="M0 0 C-1.65 8.91 -3.3 17.82 -5 27 C-7.145 27.2475 -9.29 27.495 -11.5 27.75 C-21.38956657 29.19409582 -27.63379001 32.22241327 -34 40 C-44.89884374 54.69206876 -47.0174406 73.95730089 -50.3125 91.4375 C-50.77055354 93.82635055 -51.22953087 96.21502416 -51.68945312 98.60351562 C-52.80534245 104.4001083 -53.90221085 110.19983633 -55 116 C-64.24 116 -73.48 116 -83 116 C-82.41140503 110.11405035 -81.86097708 104.68038167 -80.7565918 98.94677734 C-80.57581589 97.99756409 -80.57581589 97.99756409 -80.39138794 97.0291748 C-80.13241698 95.67145721 -79.87157498 94.31409532 -79.60898399 92.95707321 C-79.18696076 90.77248445 -78.77157301 88.58672104 -78.35786438 86.40054321 C-77.18163767 80.18921494 -75.99729347 73.97947318 -74.80102539 67.77197266 C-73.92332181 63.21190979 -73.05598451 58.64998099 -72.19921875 54.0859375 C-71.98844004 52.96342213 -71.98844004 52.96342213 -71.77340317 51.81822968 C-69.4169785 39.16721378 -67.62369657 26.48807558 -66.16960144 13.70321655 C-66.02702408 12.45360138 -65.88444672 11.20398621 -65.73754883 9.91650391 C-65.61777176 8.81787018 -65.49799469 7.71923645 -65.37458801 6.58731079 C-65 4 -65 4 -64 2 C-56.08 2 -48.16 2 -40 2 C-40.33 8.6 -40.66 15.2 -41 22 C-39.865625 20.329375 -38.73125 18.65875 -37.5625 16.9375 C-27.52528324 3.2135024 -16.6536258 -0.65308336 0 0 Z " fill="#6C6D6F" transform="translate(831,87)"/>
<path d="M0 0 C0.33 0 0.66 0 1 0 C2.49581581 23.51754852 -6.57035734 46.03962955 -21.92211914 63.64453125 C-37.84070741 81.31011121 -59.61515917 94.32628594 -83.69604492 96.3034668 C-87.57345444 96.43651639 -91.43296382 96.46741069 -95.3125 96.4375 C-95.99220856 96.43479095 -96.67191711 96.43208191 -97.3722229 96.42929077 C-107.78539066 96.36638474 -117.18425489 95.64074909 -127 92 C-128.57974609 91.43925781 -128.57974609 91.43925781 -130.19140625 90.8671875 C-154.69356046 81.41680363 -174.13236516 63.00471239 -184.875 39.125 C-189.9318974 27.24507361 -192.89903563 14.96109697 -192 2 C-191.67 2 -191.34 2 -191 2 C-190.84144531 2.92039063 -190.68289062 3.84078125 -190.51953125 4.7890625 C-186.87918357 24.53945707 -179.61098986 42.0616973 -166 57 C-165.37609375 57.70511719 -164.7521875 58.41023438 -164.109375 59.13671875 C-148.52884881 75.79740747 -124.68872853 86.38388996 -101.953125 87.23828125 C-76.92021525 87.73287246 -54.60737636 82.39253056 -35 66 C-34.1646875 65.32582031 -33.329375 64.65164062 -32.46875 63.95703125 C-13.20087983 47.63286347 -2.8418114 24.77041578 0 0 Z " fill="#981B24" transform="translate(253,152)"/>
<path d="M0 0 C4.42916865 3.24085511 6.60634605 6.74406238 7.5 12.125 C7.97807318 19.41868053 5.93096283 25.62015285 1.375 31.3125 C-3.19503053 36.06494771 -7.96733951 37.92210584 -14.5 38.25 C-20.11442152 37.71529319 -23.93386309 36.49734509 -27.8125 32.3125 C-31.32214792 27.04802812 -30.97172474 22.07963879 -30.4375 15.875 C-28.76574036 9.21817397 -25.2221436 4.54301725 -19.4375 0.875 C-13.20158299 -2.11006191 -6.52585391 -2.13573401 0 0 Z M-17.4375 13.875 C-18.66850725 17.56802176 -19.03239903 21.03519717 -18.4375 24.875 C-16.60408535 27.38020579 -16.60408535 27.38020579 -14.4375 28.875 C-10.46038272 27.58512413 -8.67504764 26.3946686 -6.4375 22.875 C-4.85705127 18.33305621 -3.93349976 14.35735365 -5.5 9.75 C-7.30197792 7.71337818 -7.30197792 7.71337818 -9.8125 7.1875 C-13.75899709 8.22110638 -15.13948731 10.61948202 -17.4375 13.875 Z " fill="#6C6D6F" transform="translate(1176.4375,207.125)"/>
<path d="M0 0 C3.0625 1.625 3.0625 1.625 5 5 C6.74655378 16.10309191 3.56446088 27.26132005 1 38 C-2.96 38 -6.92 38 -11 38 C-10.79503906 36.81664062 -10.59007812 35.63328125 -10.37890625 34.4140625 C-8.98782645 26.28754445 -7.66331012 18.22504548 -7 10 C-10.12296183 10.26024682 -11.67198976 10.69761556 -14 12.84375 C-16.88147274 17.39107417 -17.68566903 22.08121287 -18.75 27.3125 C-18.97042969 28.33923828 -19.19085937 29.36597656 -19.41796875 30.42382812 C-19.95772358 32.94659525 -20.48054416 35.47297509 -21 38 C-24.96 38 -28.92 38 -33 38 C-32.16896229 32.89050254 -31.33268209 27.78190206 -30.49145508 22.67407227 C-30.2058183 20.93505316 -29.92163501 19.19579468 -29.63891602 17.45629883 C-29.23311953 14.96111241 -28.82216378 12.46682361 -28.41015625 9.97265625 C-28.22103416 8.7992141 -28.22103416 8.7992141 -28.02809143 7.60206604 C-27.11387171 2.11387171 -27.11387171 2.11387171 -26 1 C-24.31391034 0.92794489 -22.62499341 0.91613932 -20.9375 0.9375 C-20.01839844 0.94652344 -19.09929687 0.95554688 -18.15234375 0.96484375 C-17.44207031 0.97644531 -16.73179688 0.98804688 -16 1 C-15.67 1.66 -15.34 2.32 -15 3 C-14.195625 2.505 -13.39125 2.01 -12.5625 1.5 C-8.16430637 -0.351871 -4.7010034 -0.84687194 0 0 Z " fill="#6C6D6F" transform="translate(1310,206)"/>
<path d="M0 0 C3.09799981 2.19126816 3.80352112 3.41056336 5 7 C4.94356962 16.29690586 4.2578981 29.4842038 0 38 C-3.63 38 -7.26 38 -11 38 C-10.43039912 30.21545461 -9.56938341 22.55373263 -8.40234375 14.8359375 C-7.95317778 12.1473609 -7.95317778 12.1473609 -8 10 C-10.37233611 10.03780298 -10.37233611 10.03780298 -13 11 C-17.04188089 15.85646341 -18.08211824 20.62142772 -19.1875 26.75 C-19.51216524 28.45353763 -19.83888855 30.15668472 -20.16796875 31.859375 C-20.30485107 32.60670898 -20.4417334 33.35404297 -20.58276367 34.12402344 C-21 36 -21 36 -22 38 C-25.96 38 -29.92 38 -34 38 C-33.16674365 33.21229384 -32.33049004 28.42512459 -31.49145508 23.63842773 C-31.2064503 22.0099912 -30.92226493 20.38141102 -30.63891602 18.75268555 C-30.23148519 16.41156375 -29.8211099 14.07097439 -29.41015625 11.73046875 C-29.28407486 11.00224411 -29.15799347 10.27401947 -29.02809143 9.52372742 C-28.51061037 6.59046653 -27.94360287 3.83080862 -27 1 C-23.7 1 -20.4 1 -17 1 C-16.67 1.99 -16.34 2.98 -16 4 C-15.566875 3.525625 -15.13375 3.05125 -14.6875 2.5625 C-10.78060972 -1.054991 -5.00099774 -0.60667841 0 0 Z " fill="#6C6D6F" transform="translate(1222,206)"/>
<path d="M0 0 C3.23193357 1.62201909 5.36169892 3.72339785 7 7 C7.34444547 12.25279338 7.57741751 15.82634624 4 20 C-2.58664547 24.00926246 -8.51624119 24.14674037 -16 24 C-14.82833249 26.07945482 -14.82833249 26.07945482 -13 28 C-10.66388267 28.52088105 -10.66388267 28.52088105 -8.125 28.3125 C-6.80242187 28.26029297 -6.80242187 28.26029297 -5.453125 28.20703125 C-2.90787699 27.99222529 -0.47068583 27.65884955 2 27 C2.33 29.97 2.66 32.94 3 36 C-5.40875646 38.8948178 -12.73013023 40.71140004 -21.234375 37.01171875 C-24.57503002 35.09749386 -25.53765499 33.59493149 -27 30 C-27.80940206 23.04420101 -28.11907957 15.91824523 -24.41015625 9.75 C-17.555443 1.24331985 -10.8521883 -1.31715214 0 0 Z M-15 14 C-15 14.33 -15 14.66 -15 15 C-9.2025577 15.24428343 -9.2025577 15.24428343 -4 13 C-4.33 11.68 -4.66 10.36 -5 9 C-10.06517088 8.27640416 -11.80071896 10.25227078 -15 14 Z " fill="#6C6D6F" transform="translate(1350,206)"/>
<path d="M0 0 C2.83203125 0.03255208 5.6640625 0.06510417 8.49609375 0.09765625 C8.01888502 10.15184763 5.96500936 19.95980019 4.05761719 29.81689453 C3.49099854 32.74902284 2.93441739 35.68293668 2.37890625 38.6171875 C2.02272225 40.47797701 1.66597245 42.33865832 1.30859375 44.19921875 C1.14190186 45.0782486 0.97520996 45.95727844 0.8034668 46.86294556 C-0.38851623 52.98226623 -0.38851623 52.98226623 -1.50390625 54.09765625 C-3.35678127 54.16992127 -5.21224503 54.18146845 -7.06640625 54.16015625 C-8.07832031 54.15113281 -9.09023437 54.14210937 -10.1328125 54.1328125 C-10.91527344 54.12121094 -11.69773437 54.10960937 -12.50390625 54.09765625 C-11.92031231 47.23244323 -10.96522395 40.51923443 -9.69140625 33.75 C-9.51762451 32.81209122 -9.34384277 31.87418243 -9.16479492 30.90785217 C-8.80037489 28.94705925 -8.43389773 26.9866476 -8.06542969 25.02661133 C-7.49974469 22.012986 -6.94283728 18.99782558 -6.38671875 15.98242188 C-6.03046696 14.07151774 -5.67371453 12.16070687 -5.31640625 10.25 C-5.14971436 9.34595932 -4.98302246 8.44191864 -4.8112793 7.51048279 C-3.4145749 0.13317375 -3.4145749 0.13317375 0 0 Z " fill="#6C6D6F" transform="translate(1245.50390625,189.90234375)"/>
<path d="M0 0 C2.83203125 0.03255208 5.6640625 0.06510417 8.49609375 0.09765625 C7.93639432 8.47190676 6.5818936 16.56212536 4.93359375 24.78515625 C4.69962891 25.97560547 4.46566406 27.16605469 4.22460938 28.39257812 C3.65340048 31.29525189 3.07545032 34.19659772 2.49609375 37.09765625 C-1.46390625 37.09765625 -5.42390625 37.09765625 -9.50390625 37.09765625 C-8.76856447 29.34314293 -7.43343497 21.75176144 -6.00390625 14.09765625 C-5.77832031 12.85886719 -5.55273438 11.62007812 -5.3203125 10.34375 C-5.10246094 9.16941406 -4.88460938 7.99507812 -4.66015625 6.78515625 C-4.46228516 5.71652344 -4.26441406 4.64789063 -4.06054688 3.546875 C-3.28354423 0.12806335 -3.28354423 0.12806335 0 0 Z " fill="#6C6D6F" transform="translate(1264.50390625,206.90234375)"/>
<path d="M0 0 C3.5625 0.3125 3.5625 0.3125 5.5625 1.375 C7.19628851 4.54046524 6.41517564 6.96270286 5.5625 10.3125 C2.09207297 12.62611802 0.64415827 12.82270728 -3.4375 12.3125 C-5.375 10.6875 -5.375 10.6875 -6.4375 8.3125 C-6.12371717 3.0827861 -5.61102633 0.5100933 0 0 Z " fill="#6C6D6F" transform="translate(1269.4375,190.6875)"/>
<path d="M0 0 C0.33 0 0.66 0 1 0 C1.66 4.62 2.32 9.24 3 14 C2.34 14 1.68 14 1 14 C-0.38226016 11.23547967 -0.09525387 8.9538637 -0.0625 5.875 C-0.05347656 4.77929688 -0.04445312 3.68359375 -0.03515625 2.5546875 C-0.02355469 1.71164063 -0.01195312 0.86859375 0 0 Z " fill="#A11E2C" transform="translate(61,154)"/>
</svg>
