<?xml version="1.0" encoding="UTF-8"?>
<svg version="1.1" xmlns="http://www.w3.org/2000/svg" width="383" height="133">
<path d="M0 0 C4.29 0 8.58 0 13 0 C15.92526698 2.93870104 17.17147621 4.62583285 18.9375 8.1875 C19.90600555 9.91899489 20.87884521 11.64807093 21.85546875 13.375 C22.60449463 14.74398438 22.60449463 14.74398438 23.36865234 16.140625 C26.23304104 21.16123565 29.50611588 25.90693107 32.75 30.6875 C33.95378066 32.48263342 35.15696417 34.27816751 36.359375 36.07421875 C37.23924213 37.38304194 38.11930949 38.69173071 39 40 C44.66598032 32.44099056 49.82009312 24.68020573 54.75 16.625 C56.03345989 14.53201251 57.31982016 12.44080022 58.609375 10.3515625 C59.16592773 9.44229004 59.72248047 8.53301758 60.29589844 7.59619141 C62.0649173 4.90109877 63.84454423 2.39986692 66 0 C68.98046875 -0.5234375 68.98046875 -0.5234375 72.1875 -0.375 C73.25355469 -0.34148438 74.31960937 -0.30796875 75.41796875 -0.2734375 C78 -0 78 -0 79 1 C79.09533653 4.1050725 79.12551126 7.18786458 79.11352539 10.29321289 C79.11367142 11.26871597 79.11381744 12.24421906 79.1139679 13.24928284 C79.11326833 16.49042953 79.10547391 19.73151954 79.09765625 22.97265625 C79.09579222 25.21325143 79.09436825 27.45384702 79.09336853 29.69444275 C79.08954213 35.6045951 79.0797108 41.51472305 79.06866455 47.42486572 C79.05845306 53.45055817 79.05387147 59.47625453 79.04882812 65.50195312 C79.03808864 77.33464616 79.02101076 89.16732106 79 101 C74.38 101 69.76 101 65 101 C64.67 77.57 64.34 54.14 64 30 C51.93338572 48.95884231 51.93338572 48.95884231 40 68 C37.11854262 65.27940447 34.9246993 62.57694478 32.828125 59.21875 C32.24546875 58.29320312 31.6628125 57.36765625 31.0625 56.4140625 C30.1653125 54.97160156 30.1653125 54.97160156 29.25 53.5 C24.28914836 45.57580778 19.18918978 37.78378467 14 30 C13.67 53.43 13.34 76.86 13 101 C8.71 101 4.42 101 0 101 C0 67.67 0 34.34 0 0 Z " fill="#0A929C" transform="translate(0,0)"/>
<path d="M0 0 C6.95623592 4.31891517 12.13555283 10.92783034 14.1875 18.9375 C13.6925 21.4125 13.6925 21.4125 13.1875 23.9375 C9.2275 24.5975 5.2675 25.2575 1.1875 25.9375 C0.65125 24.720625 0.115 23.50375 -0.4375 22.25 C-2.58571029 17.93828968 -4.883737 15.69599317 -8.8125 12.9375 C-13.59700889 11.3426637 -17.91901585 11.37977331 -22.625 13.1875 C-25.77387539 14.64821452 -25.77387539 14.64821452 -27.25 16.75 C-28.0065476 19.69212955 -28.18370365 21.90600355 -27.8125 24.9375 C-24.67795273 29.73576851 -20.47077967 32.52766275 -15.8125 35.6875 C-14.28301694 36.74749088 -12.75437569 37.80869742 -11.2265625 38.87109375 C-10.47665039 39.3904248 -9.72673828 39.90975586 -8.95410156 40.44482422 C13.28409731 55.94463588 13.28409731 55.94463588 15.1875 65.9375 C16.24682667 75.63033902 14.27542768 82.01611526 9.1875 90.125 C4.09816049 95.83654716 -4.92524998 99.5648651 -12.4765625 100.140625 C-24.06343417 100.32405832 -32.30986444 98.0749917 -40.8125 89.9375 C-44.94488082 84.74553436 -47.20651176 79.63569999 -46.8125 72.9375 C-37.44191176 70.39632353 -37.44191176 70.39632353 -33.8125 70.9375 C-32.2578125 72.984375 -32.2578125 72.984375 -30.9375 75.6875 C-28.71591733 79.6582275 -27.04715901 82.44251939 -22.859375 84.37890625 C-16.75015346 86.04611747 -10.87904138 85.98020034 -5.3125 82.8125 C-1.89958504 80.3106301 -0.0307083 78.07940823 1.1875 73.9375 C1.47246012 70.40399456 1.58096731 69.03017427 0.1875 65.9375 C-2.74720935 62.72745179 -6.24586109 60.40149192 -9.8125 57.9375 C-11.18988939 56.96377582 -12.5661184 55.98840889 -13.94140625 55.01171875 C-16.88935634 52.92353287 -19.84320785 50.84405962 -22.80078125 48.76953125 C-40.88680836 36.04076955 -40.88680836 36.04076955 -42.8125 26.9375 C-43.80571428 19.20653476 -42.27455673 13.34098045 -37.8125 6.9375 C-28.45545702 -3.26846825 -12.76937568 -5.93561194 0 0 Z " fill="#0A929C" transform="translate(202.8125,2.0625)"/>
<path d="M0 0 C4.29 0 8.58 0 13 0 C13 18.81 13 37.62 13 57 C13.66 57 14.32 57 15 57 C15.24693604 56.46914795 15.49387207 55.9382959 15.74829102 55.39135742 C17.32344293 52.38207071 19.15889427 49.57002381 21.02734375 46.73828125 C21.41692764 46.1470195 21.80651154 45.55575775 22.207901 44.94657898 C23.02943616 43.7026792 23.85233473 42.45967894 24.67651367 41.2175293 C25.93700704 39.31324474 27.18624339 37.40187247 28.43554688 35.49023438 C29.23629205 34.2807948 30.03770168 33.07179481 30.83984375 31.86328125 C31.56550537 30.76282471 32.29116699 29.66236816 33.03881836 28.52856445 C35 26 35 26 38 25 C40.48046875 26.43359375 40.48046875 26.43359375 43.1875 28.4375 C44.53908203 29.42556641 44.53908203 29.42556641 45.91796875 30.43359375 C46.60503906 30.95050781 47.29210937 31.46742187 48 32 C42.69445786 40.60832995 36.93553243 48.81923598 31 57 C32.05696207 59.37816466 33.16192199 61.19466832 34.83496094 63.20605469 C37.2364513 66.3051363 39.07523427 69.55793351 40.890625 73.015625 C41.24010193 73.67205994 41.58957886 74.32849487 41.949646 75.00482178 C42.68144935 76.38179616 43.4107646 77.76009549 44.13769531 79.13964844 C45.2553884 81.2602233 46.38093661 83.37648046 47.5078125 85.4921875 C48.21920826 86.83309031 48.93016184 88.17422783 49.640625 89.515625 C49.97805725 90.15099182 50.3154895 90.78635864 50.66314697 91.440979 C53 95.88334227 53 95.88334227 53 97 C47.72 97 42.44 97 37 97 C36.32453125 95.70964844 35.6490625 94.41929688 34.953125 93.08984375 C34.05215029 91.37236071 33.15110487 89.65491476 32.25 87.9375 C31.8065625 87.08994141 31.363125 86.24238281 30.90625 85.36914062 C30.02536042 83.69156415 29.13285831 82.02003109 28.22851562 80.35498047 C27 78 27 78 26.13085938 75.85205078 C25.261895 73.64520488 25.261895 73.64520488 23 71 C19.7 70.67 16.4 70.34 13 70 C13 78.91 13 87.82 13 97 C8.71 97 4.42 97 0 97 C-1.88657671 95.11342329 -1.12667188 92.36827497 -1.13552856 89.85786438 C-1.13350433 88.97471054 -1.1314801 88.0915567 -1.12939453 87.18164062 C-1.13114685 86.25651169 -1.13289917 85.33138275 -1.13470459 84.3782196 C-1.13912467 81.30421095 -1.13618457 78.2302593 -1.1328125 75.15625 C-1.13348549 73.03015125 -1.13445548 70.90405258 -1.13571167 68.7779541 C-1.13718886 64.3156664 -1.13503342 59.85339867 -1.13037109 55.39111328 C-1.1246738 49.65729431 -1.12795269 43.92352215 -1.13394356 38.1897049 C-1.13754861 33.79754277 -1.13641084 29.40539183 -1.13381577 25.01322937 C-1.13314634 22.89841201 -1.13397545 20.78359366 -1.13629532 18.66877747 C-1.13882093 15.71861054 -1.13498254 12.76852054 -1.12939453 9.81835938 C-1.13141876 8.93520554 -1.13344299 8.0520517 -1.13552856 7.14213562 C-1.11426234 1.11426234 -1.11426234 1.11426234 0 0 Z " fill="#0F959F" transform="translate(235,4)"/>
<path d="M0 0 C4.29 0 8.58 0 13 0 C13.0093457 1.45817139 13.01869141 2.91634277 13.02832031 4.41870117 C13.06821648 9.83291075 13.1339752 15.2465519 13.20751953 20.66040039 C13.23573113 23.00277398 13.25694468 25.34524281 13.27099609 27.68774414 C13.29242224 31.05664839 13.33907316 34.42440737 13.390625 37.79296875 C13.39185364 38.83897751 13.39308228 39.88498627 13.39434814 40.96269226 C13.50770867 46.85566571 13.50770867 46.85566571 15.91748047 52.1496582 C18.68739409 54.6107573 20.37573302 54.89631238 23.96484375 55.14453125 C27.14841319 54.91844283 29.36886458 53.73269894 32 52 C33.22083085 49.5583383 33.15730743 47.91309194 33.20532227 45.18310547 C33.22526749 44.18221893 33.24521271 43.1813324 33.26576233 42.15011597 C33.28247482 41.06674957 33.29918732 39.98338318 33.31640625 38.8671875 C33.33718735 37.76021515 33.35796844 36.6532428 33.37937927 35.51272583 C33.44490991 31.96688201 33.50377614 28.42096246 33.5625 24.875 C33.60568187 22.4752525 33.64929605 20.07551273 33.69335938 17.67578125 C33.80059492 11.78393233 33.90185248 5.89200703 34 0 C38.62 0 43.24 0 48 0 C48.09284301 10.81400002 48.16383758 21.62790459 48.20724869 32.4422226 C48.22808808 37.46422952 48.25633898 42.48596295 48.30175781 47.5078125 C48.34534579 52.35780003 48.36916453 57.20752514 48.37950897 62.05769348 C48.38687713 63.90440499 48.4012654 65.75110278 48.42292023 67.59770203 C48.45212682 70.19239899 48.45594887 72.78602344 48.45410156 75.38085938 C48.47567322 76.51590912 48.47567322 76.51590912 48.49768066 77.67388916 C48.43681865 85.6187233 45.07547533 91.49657171 39.5 97.0625 C38.7471875 97.83722656 37.994375 98.61195313 37.21875 99.41015625 C35 101 35 101 32.921875 100.96875 C30.58673643 99.79168828 29.37992433 98.47490541 27.75 96.4375 C27.22921875 95.79683594 26.7084375 95.15617187 26.171875 94.49609375 C25.78515625 94.00238281 25.3984375 93.50867188 25 93 C26.38488502 89.81543347 27.11550857 88.91513656 30.0625 86.75 C33.69873575 83.37033563 33.66560122 79.32085719 33.875 74.625 C33.95962119 72.08026054 33.99395063 69.54678679 34 67 C33.09765625 67.32226562 32.1953125 67.64453125 31.265625 67.9765625 C24.04264448 70.24022386 18.08575799 69.23875781 11.2265625 66.19140625 C5.40834349 63.07814871 2.1126149 58.10855204 0 52 C-0.5210431 47.93764861 -0.46765709 43.93374053 -0.390625 39.84375 C-0.38496521 38.70087524 -0.37930542 37.55800049 -0.37347412 36.38049316 C-0.35119848 32.75322448 -0.30101625 29.12696691 -0.25 25.5 C-0.22992371 23.03126433 -0.21167493 20.56251308 -0.1953125 18.09375 C-0.1513622 12.06211422 -0.08239383 6.03122817 0 0 Z " fill="#0B929C" transform="translate(94,32)"/>
<path d="M0 0 C4.29 0 8.58 0 13 0 C13.00586624 1.05822464 13.01173248 2.11644928 13.01777649 3.20674133 C13.07493473 13.16878702 13.14765995 23.13061296 13.23571491 33.09243488 C13.28048467 38.21419522 13.31972612 43.33587479 13.34643555 48.45776367 C13.37240275 53.39864198 13.41275813 58.33921059 13.46318626 63.27989769 C13.47989965 65.1669448 13.49138599 67.05404554 13.49761391 68.94115639 C13.50720656 71.57999944 13.53520689 74.21804211 13.56762695 76.85668945 C13.56619186 77.6407164 13.56475677 78.42474335 13.5632782 79.23252869 C13.61008233 83.33056452 13.61008233 83.33056452 15.33952332 86.94645691 C17.13409597 88.17871822 17.13409597 88.17871822 20 89 C18.22054913 93.04420651 15.60470327 96.46078487 13 100 C7.87546231 98.98173333 4.53419706 96.00348016 1.42973328 91.94941711 C-0.46396259 88.04288497 -0.39681963 84.50835982 -0.34057617 80.26245117 C-0.34101425 79.39365326 -0.34145233 78.52485535 -0.34190369 77.62973022 C-0.33981902 74.76724525 -0.31650313 71.90535101 -0.29296875 69.04296875 C-0.28737165 67.05471619 -0.28310209 65.06645948 -0.28010559 63.07820129 C-0.26866581 57.85190352 -0.23920595 52.62585692 -0.20599365 47.3996582 C-0.17527418 42.0639994 -0.16159623 36.72829992 -0.14648438 31.39257812 C-0.11433553 20.92827523 -0.06314953 10.46415852 0 0 Z " fill="#0A929D" transform="translate(363,4)"/>
<path d="M0 0 C4.29 0 8.58 0 13 0 C13.00586624 1.05822464 13.01173248 2.11644928 13.01777649 3.20674133 C13.07493473 13.16878702 13.14765995 23.13061296 13.23571491 33.09243488 C13.28048467 38.21419522 13.31972612 43.33587479 13.34643555 48.45776367 C13.37240275 53.39864198 13.41275813 58.33921059 13.46318626 63.27989769 C13.47989965 65.1669448 13.49138599 67.05404554 13.49761391 68.94115639 C13.50720656 71.57999944 13.53520689 74.21804211 13.56762695 76.85668945 C13.56619186 77.6407164 13.56475677 78.42474335 13.5632782 79.23252869 C13.61008233 83.33056452 13.61008233 83.33056452 15.33952332 86.94645691 C17.13409597 88.17871822 17.13409597 88.17871822 20 89 C18.22054913 93.04420651 15.60470327 96.46078487 13 100 C7.87546231 98.98173333 4.53419706 96.00348016 1.42973328 91.94941711 C-0.46396259 88.04288497 -0.39681963 84.50835982 -0.34057617 80.26245117 C-0.34101425 79.39365326 -0.34145233 78.52485535 -0.34190369 77.62973022 C-0.33981902 74.76724525 -0.31650313 71.90535101 -0.29296875 69.04296875 C-0.28737165 67.05471619 -0.28310209 65.06645948 -0.28010559 63.07820129 C-0.26866581 57.85190352 -0.23920595 52.62585692 -0.20599365 47.3996582 C-0.17527418 42.0639994 -0.16159623 36.72829992 -0.14648438 31.39257812 C-0.11433553 20.92827523 -0.06314953 10.46415852 0 0 Z " fill="#0B929C" transform="translate(330,4)"/>
<path d="M0 0 C4.62 0 9.24 0 14 0 C14 22.77 14 45.54 14 69 C9.38 69 4.76 69 0 69 C0 46.23 0 23.46 0 0 Z " fill="#0A929D" transform="translate(299,32)"/>
<path d="M0 0 C4.62 0 9.24 0 14 0 C14 5.94 14 11.88 14 18 C3.94140625 18.09765625 3.94140625 18.09765625 1 18 C0 17 0 17 -0.09765625 13.18359375 C-0.09098089 11.60153318 -0.07901875 10.01948841 -0.0625 8.4375 C-0.05798828 7.63119141 -0.05347656 6.82488281 -0.04882812 5.99414062 C-0.03700518 3.99606244 -0.01906914 1.99802217 0 0 Z " fill="#0B939A" transform="translate(299,10)"/>
<path d="M0 0 C0.66 0 1.32 0 2 0 C2.65234375 1.734375 2.65234375 1.734375 3 4 C2.00390625 6.140625 2.00390625 6.140625 0.5625 8.25 C0.08941406 8.95640625 -0.38367187 9.6628125 -0.87109375 10.390625 C-1.24363281 10.92171875 -1.61617187 11.4528125 -2 12 C-5.67230705 8.92000054 -6.56802365 6.7517398 -7 2 C-5.68 2 -4.36 2 -3 2 C-2.67 3.32 -2.34 4.64 -2 6 C-1.34 6 -0.68 6 0 6 C0 4.02 0 2.04 0 0 Z " fill="#089792" transform="translate(42,56)"/>
<path d="M0 0 C1.15957207 3.47871621 0.77456651 4.34219645 -0.4375 7.6875 C-0.72496094 8.49574219 -1.01242188 9.30398438 -1.30859375 10.13671875 C-1.53675781 10.75160156 -1.76492187 11.36648438 -2 12 C-2.99 12 -3.98 12 -5 12 C-4.52389341 7.00088076 -2.96837781 4.02167317 0 0 Z " fill="#09948C" transform="translate(64,2)"/>
<path d="M0 0 C0 0.66 0 1.32 0 2 C0.99 2 1.98 2 3 2 C3 2.66 3 3.32 3 4 C1.68 4.33 0.36 4.66 -1 5 C-1.33 4.34 -1.66 3.68 -2 3 C-4.35599235 2.53248212 -4.35599235 2.53248212 -7.0625 2.375 C-7.98160156 2.30023438 -8.90070313 2.22546875 -9.84765625 2.1484375 C-10.55792969 2.09945312 -11.26820313 2.05046875 -12 2 C-12 1.67 -12 1.34 -12 1 C-7.915021 0.45533613 -4.1274515 0 0 0 Z " fill="#168E93" transform="translate(260,72)"/>
<path d="M0 0 C1 2 1 2 0.44140625 4.1640625 C0.15136719 4.97617187 -0.13867188 5.78828125 -0.4375 6.625 C-0.72496094 7.44226562 -1.01242188 8.25953125 -1.30859375 9.1015625 C-1.53675781 9.72804688 -1.76492187 10.35453125 -2 11 C-2.99 11 -3.98 11 -5 11 C-4.46884894 6.48521602 -2.63379708 3.65333143 0 0 Z " fill="#09958E" transform="translate(256,51)"/>
<path d="M0 0 C3 0 3 0 4.38671875 1.3125 C5.59114583 2.875 6.79557292 4.4375 8 6 C7.67 6.66 7.34 7.32 7 8 C4.36 6.02 1.72 4.04 -1 2 C-0.67 1.34 -0.34 0.68 0 0 Z " fill="#129091" transform="translate(180,48)"/>
</svg>
